<svg width="28" height="30" viewBox="0 0 28 30" fill="none" xmlns="http://www.w3.org/2000/svg">
<g style="mix-blend-mode:darken">
<path d="M25.9776 9.72421L25.9783 9.7248C26.6268 10.2699 27 11.0731 27 11.9221V26.6251C27 27.1886 26.7761 27.7291 26.3776 28.1277C25.9791 28.5262 25.4386 28.75 24.875 28.75H20.375C19.8114 28.75 19.2709 28.5262 18.8724 28.1277C18.4739 27.7291 18.25 27.1886 18.25 26.625V19.1251C18.25 18.6941 18.0788 18.2808 17.774 17.976C17.4693 17.6713 17.056 17.5001 16.625 17.5001H11.375C10.944 17.5001 10.5307 17.6713 10.226 17.976C9.92121 18.2808 9.75 18.6941 9.75 19.1251V26.6251C9.75 27.1886 9.52612 27.7291 9.1276 28.1277C8.72909 28.5262 8.18858 28.75 7.625 28.75H3.125C2.84594 28.75 2.56962 28.6951 2.3118 28.5883C2.05398 28.4815 1.81972 28.325 1.6224 28.1277C1.42507 27.9303 1.26855 27.6961 1.16176 27.4383C1.05496 27.1804 1 26.9041 1 26.625V11.9206C1 11.0734 1.37302 10.2698 2.02216 9.72293L2.02239 9.72273L12.1472 1.18188C12.1473 1.18183 12.1473 1.18178 12.1474 1.18173C12.6658 0.744853 13.322 0.505249 14 0.505249C14.678 0.505249 15.3341 0.744843 15.8526 1.18171C15.8526 1.18176 15.8527 1.18182 15.8528 1.18188L25.9776 9.72421Z" fill="#0F161E" fill-opacity="0.12"/>
<path d="M25.9776 9.72421L25.9783 9.7248C26.6268 10.2699 27 11.0731 27 11.9221V26.6251C27 27.1886 26.7761 27.7291 26.3776 28.1277C25.9791 28.5262 25.4386 28.75 24.875 28.75H20.375C19.8114 28.75 19.2709 28.5262 18.8724 28.1277C18.4739 27.7291 18.25 27.1886 18.25 26.625V19.1251C18.25 18.6941 18.0788 18.2808 17.774 17.976C17.4693 17.6713 17.056 17.5001 16.625 17.5001H11.375C10.944 17.5001 10.5307 17.6713 10.226 17.976C9.92121 18.2808 9.75 18.6941 9.75 19.1251V26.6251C9.75 27.1886 9.52612 27.7291 9.1276 28.1277C8.72909 28.5262 8.18858 28.75 7.625 28.75H3.125C2.84594 28.75 2.56962 28.6951 2.3118 28.5883C2.05398 28.4815 1.81972 28.325 1.6224 28.1277C1.42507 27.9303 1.26855 27.6961 1.16176 27.4383C1.05496 27.1804 1 26.9041 1 26.625V11.9206C1 11.0734 1.37302 10.2698 2.02216 9.72293L2.02239 9.72273L12.1472 1.18188C12.1473 1.18183 12.1473 1.18178 12.1474 1.18173C12.6658 0.744853 13.322 0.505249 14 0.505249C14.678 0.505249 15.3341 0.744843 15.8526 1.18171C15.8526 1.18176 15.8527 1.18182 15.8528 1.18188L25.9776 9.72421Z" stroke="black"/>
</g>
</svg>
